<svg width="512" height="512" viewBox="0 0 512 512" fill="none" xmlns="http://www.w3.org/2000/svg">
<path d="M432.092 79.909H114.561C94.668 79.909 78.543 63.783 78.543 43.891C78.543 23.998 94.669 7.87305 114.561 7.87305H400.075L432.092 79.909Z" fill="#909090"/>
<path d="M79.91 55.896L103.922 79.909H119.93V504.128H103.922L79.91 488.12V55.896Z" fill="#C0C0C0"/>
<path d="M432.101 79.915H119.936V504.133H432.101V79.915Z" fill="#707070"/>
<path d="M368.066 79.915H304.031V280.017H368.066V79.915Z" fill="#C0C0C0"/>
<path d="M72.037 472.112C72.037 494.107 89.931 512 111.925 512H439.963V72.038H384.067V87.782H424.22V496.258H111.926C98.612 496.258 87.782 485.426 87.782 472.114V77.534C95.408 83.925 105.225 87.781 115.928 87.781H288.018V72.038H115.928C100.408 72.038 87.782 59.412 87.782 43.892C87.782 28.372 100.408 15.744 115.928 15.744H408.08V0H115.928C93.077 0 74.116 17.455 72.088 39.787L72.037 472.112Z" fill="#1D1D1B"/>
<path d="M400.067 24.012H103.919V39.756H400.067V24.012Z" fill="#1D1D1B"/>
<path d="M416.084 48.024H103.919V63.7681H416.084V48.024Z" fill="#1D1D1B"/>
<path d="M375.93 300.754L336.042 280.81L296.154 300.754V72.038H375.93V300.754ZM311.898 87.781V275.28L336.042 263.208L360.186 275.28V87.781H311.898Z" fill="#1D1D1B"/>
<path d="M127.808 95.921H112.064V488.127H127.808V95.921Z" fill="#1D1D1B"/>
<path d="M231.989 112.063H151.948V127.807H231.989V112.063Z" fill="#1D1D1B"/>
<path d="M328.037 456.24H312.029V471.984H328.037V456.24Z" fill="white"/>
<path d="M360.06 456.24H344.052V471.984H360.06V456.24Z" fill="white"/>
<path d="M392.072 456.24H376.064V471.984H392.072V456.24Z" fill="white"/>
<path d="M199.972 144.075H151.948V159.819H199.972V144.075Z" fill="#1D1D1B"/>
<path d="M199.972 176.087H151.948V191.831H199.972V176.087Z" fill="white"/>
</svg>
