<svg width="800" height="800" viewBox="0 0 800 800" fill="none" xmlns="http://www.w3.org/2000/svg">
<path d="M699.5 190.55C681.252 172.295 659.587 157.813 635.741 147.933C611.895 138.053 586.337 132.968 560.525 132.968C534.713 132.968 509.155 138.053 485.309 147.933C461.463 157.813 439.798 172.295 421.55 190.55L405.85 206.25L390.15 190.55C353.292 153.692 303.301 132.985 251.175 132.985C199.049 132.985 149.058 153.692 112.2 190.55C75.3415 227.408 54.6347 277.399 54.6347 329.525C54.6347 381.651 75.3415 431.642 112.2 468.5C112.2 468.5 364.25 724 400 725C411.2 725.3 467.5 678.5 528.3 624.85L527.9 624.35C531.167 622.395 533.692 619.411 535.081 615.866C536.469 612.321 536.642 608.415 535.573 604.761C534.504 601.108 532.252 597.912 529.172 595.675C526.091 593.438 522.355 592.286 518.55 592.4C514.257 592.42 510.131 594.063 507 597L506.95 596.95L555.65 552.55C553.753 554.157 552.225 556.155 551.173 558.408C550.12 560.66 549.566 563.114 549.55 565.6C549.543 567.902 549.991 570.183 550.868 572.312C551.744 574.441 553.032 576.376 554.658 578.007C556.284 579.637 558.215 580.931 560.341 581.813C562.468 582.696 564.748 583.15 567.05 583.15C571.3 583.15 575.05 581.45 578.15 578.9L578.35 579.15L617.45 543.4L617.1 543.05C619.384 540.558 620.885 537.45 621.417 534.112C621.949 530.774 621.489 527.353 620.093 524.274C618.698 521.195 616.429 518.595 613.568 516.795C610.706 514.995 607.379 514.075 604 514.15C599.751 514.196 595.671 515.817 592.55 518.7L655.35 461.3L655.75 461.7C652.923 464.828 651.34 468.884 651.3 473.1C651.293 475.402 651.741 477.683 652.618 479.812C653.494 481.941 654.782 483.876 656.408 485.507C658.034 487.137 659.965 488.431 662.092 489.313C664.218 490.196 666.498 490.65 668.8 490.65C672.911 490.595 676.867 489.07 679.95 486.35L680.2 486.65L699.6 468.55C736.421 431.656 757.093 381.654 757.074 329.529C757.056 277.404 736.348 227.418 699.5 190.55Z" fill="black"/>
<path d="M399.2 686.45C359.35 660.4 237.35 545.5 137.1 443.85C106.795 413.55 89.7564 372.46 89.7283 329.606C89.7002 286.752 106.684 245.639 136.95 215.3C167.45 184.75 208.05 167.95 251.2 167.95C294.35 167.95 334.9 184.75 365.4 215.25L405.9 255.75L446.4 215.3C476.9 184.8 517.45 168 560.6 168C603.75 168 644.35 184.8 674.8 215.3C705.3 245.8 722.1 286.35 722.1 329.55C722.1 372.75 705.3 413.25 674.8 443.75C565.35 546.7 439.05 659.4 399.2 686.45Z" fill="#707070"/>
<path d="M240.65 501.55C237.765 501.548 234.972 500.54 232.75 498.7C218.215 486.641 204.265 473.893 190.95 460.5C184.348 453.947 177.613 447.529 170.75 441.25C110.45 387.1 113.55 330.95 113.7 328.55C112.35 249.2 185.45 206.75 188.55 205C191.434 203.362 194.851 202.937 198.048 203.819C201.246 204.7 203.962 206.816 205.6 209.7C207.238 212.584 207.663 216.001 206.781 219.198C205.9 222.396 203.784 225.112 200.9 226.75C200.25 227.1 137.55 263.85 138.6 329.25C138.55 332.1 136.75 377.1 187.45 422.65C194.25 428.75 201.15 435.5 208.4 442.6C220.6 454.6 233.25 466.95 248.5 479.4C250.489 479.407 252.447 479.891 254.21 480.81C255.974 481.73 257.491 483.058 258.636 484.684C259.78 486.311 260.519 488.187 260.789 490.158C261.059 492.128 260.854 494.134 260.189 496.009C259.525 497.883 258.421 499.571 256.971 500.932C255.52 502.292 253.765 503.285 251.851 503.828C249.938 504.37 247.923 504.447 245.974 504.05C244.025 503.654 242.199 502.797 240.65 501.55ZM330.2 587C326.929 587.017 323.784 585.741 321.45 583.45L273.55 536.55C272.375 535.401 271.437 534.032 270.791 532.52C270.145 531.009 269.803 529.385 269.784 527.741C269.766 526.098 270.071 524.467 270.683 522.941C271.295 521.415 272.201 520.025 273.35 518.85C274.499 517.675 275.868 516.737 277.38 516.091C278.891 515.445 280.515 515.103 282.159 515.084C283.802 515.066 285.433 515.371 286.959 515.983C288.485 516.595 289.875 517.501 291.05 518.65L338.95 565.55C340.731 567.287 341.954 569.515 342.461 571.951C342.968 574.386 342.737 576.918 341.798 579.221C340.858 581.525 339.253 583.496 337.186 584.881C335.12 586.267 332.688 587.005 330.2 587Z" fill="white"/>
</svg>
